# xmcd
#
# Track frame offsets: 
#        182
#        21547
#        41012
#        63615
#        88765
#        129807
#        166747
#        184795
#        199910
#        225182
#        239727
#        256810
#
# Disc length: 3800 seconds
#
# Revision: 5
# Processed by: cddbd v1.5.2PL0 Copyright (c) Steve Scherf et al.
# Submitted via: ExactAudioCopy v0.99pb4
#
DISCID=9e0ed60c
DTITLE=Gram Parsons and The Fallen Angels - Live 1973
DYEAR=1994
DGENRE=Country
TTITLE0=We'll Sweep out the Ashes
TTITLE1=Country Baptizing
TTITLE2=Drug Store Truck Drivin' Man
TTITLE3=Big Mouth Blues
TTITLE4=The New Soft Shoe
TTITLE5=Cry One More Time
TTITLE6=Streets of Baltimore
TTITLE7=That's All It Took
TTITLE8=Love Hurts
TTITLE9=California Cottonfields
TTITLE10=Six Days on the Road
TTITLE11=Forty Days-Almost Grown-Bony Moronie
EXTD=© 1982 and 1994 Rhino Entertainment Company   \n     R2-72726 YEAR:
EXTD=1994ID3G:   2
EXTT0=
EXTT1=
EXTT2=
EXTT3=
EXTT4=
EXTT5=
EXTT6=
EXTT7=
EXTT8=
EXTT9=
EXTT10=
EXTT11=
PLAYORDER=
